<svg width="42" height="11" viewBox="0 0 42 11" fill="none" xmlns="http://www.w3.org/2000/svg">
<path d="M12.0514 0.742856L10.04 7.42857L8.23429 0.754285H6.29143L4.48571 7.44L2.47429 0.754285H0.531429L3.38857 10H5.58286L7.26286 4.13714L8.94286 10H11.1371L13.9943 0.742856H12.0514ZM17.4946 8.90476H16.3117H15.6546C15.6327 8.90476 15.5889 8.90476 15.567 8.88286C15.2822 8.79524 15.1946 8.72952 15.1289 8.44476C15.107 8.42286 15.107 8.37905 15.107 8.35714V7.7V6.51714V5.8819C15.107 5.83809 15.107 5.81619 15.1289 5.77238C15.1946 5.48762 15.2822 5.4219 15.567 5.33429C15.5889 5.31238 15.6327 5.31238 15.6546 5.31238H16.3117H17.4946H18.6993H19.3346C19.3565 5.31238 19.4003 5.31238 19.4222 5.33429C19.707 5.4219 19.7946 5.48762 19.8822 5.77238C19.8822 5.81619 19.8822 5.83809 19.8822 5.8819V6.51714V7.7V8.35714C19.8822 8.37905 19.8822 8.42286 19.8822 8.44476C19.7946 8.72952 19.707 8.79524 19.4222 8.88286C19.4003 8.90476 19.3565 8.90476 19.3346 8.90476H18.6993H17.4946ZM22.2698 8.44476C22.1822 8.72952 22.0946 8.79524 21.8317 8.88286C21.7879 8.90476 21.766 8.90476 21.7222 8.90476H21.6346C21.6127 8.90476 21.5689 8.90476 21.547 8.88286C21.2622 8.79524 21.1746 8.72952 21.087 8.44476C21.087 8.42286 21.087 8.37905 21.087 8.35714V7.7V6.51714V5.8819C21.087 5.83809 21.087 5.81619 21.087 5.77238C21.1746 5.48762 21.2622 5.4219 21.547 5.33429C21.5689 5.31238 21.6127 5.31238 21.6346 5.31238H21.9193C22.1165 5.31238 22.2698 5.15905 22.2698 4.9619V4.12952V2.92476V2.07048C22.2698 1.89524 22.1165 1.7419 21.9193 1.7419H21.6346C21.6127 1.7419 21.5689 1.72 21.547 1.72C21.2622 1.63238 21.1746 1.56667 21.087 1.2819C21.087 1.23809 21.087 1.21619 21.087 1.17238V0.887619C21.087 0.690476 20.9336 0.537142 20.7365 0.537142H19.8822H18.6993H17.4946H16.6403C16.4651 0.537142 16.3117 0.690476 16.3117 0.887619V1.17238C16.3117 1.21619 16.2898 1.23809 16.2898 1.2819C16.2022 1.56667 16.1365 1.63238 15.8517 1.72C15.8079 1.72 15.786 1.7419 15.7422 1.7419H15.4574C15.2603 1.7419 15.107 1.89524 15.107 2.07048V2.57429C15.107 2.77143 15.2603 2.92476 15.4574 2.92476H15.9613C16.1365 2.92476 16.3117 2.77143 16.3117 2.57429V2.28952C16.3117 2.24571 16.3117 2.22381 16.3117 2.18C16.3993 1.91714 16.487 1.82952 16.7498 1.7419C16.7936 1.7419 16.8155 1.7419 16.8593 1.7419H17.4946H18.6993H19.8822H20.5174C20.5613 1.7419 20.5832 1.7419 20.627 1.7419C20.9117 1.82952 20.9774 1.91714 21.0651 2.18C21.087 2.22381 21.087 2.24571 21.087 2.28952V2.92476V4.12952V4.76476C21.087 4.78667 21.087 4.83048 21.0651 4.85238C20.9774 5.13714 20.9117 5.22476 20.627 5.31238C20.5832 5.31238 20.5613 5.31238 20.5174 5.31238H20.4517C20.4079 5.31238 20.386 5.31238 20.3422 5.31238C20.0574 5.22476 19.9917 5.13714 19.9041 4.85238C19.8822 4.83048 19.8822 4.78667 19.8822 4.76476V4.48C19.8822 4.28286 19.7289 4.12952 19.5317 4.12952H18.6993H17.4946H16.3117H15.4574C15.2603 4.12952 15.107 4.28286 15.107 4.48V4.76476C15.107 4.78667 15.107 4.83048 15.0851 4.85238C15.0193 5.13714 14.9317 5.22476 14.647 5.31238C14.6251 5.31238 14.5813 5.31238 14.5593 5.31238H14.2527C14.0774 5.31238 13.9241 5.46571 13.9241 5.66286V6.51714V7.7V8.55429C13.9241 8.75143 14.0774 8.90476 14.2527 8.90476H14.6032C14.9317 8.99238 14.9974 9.0581 15.0851 9.36476C15.107 9.38667 15.107 9.43048 15.107 9.45238V9.75905C15.107 9.93429 15.2603 10.0876 15.4574 10.0876H16.3117H17.4946H18.6993H19.5317C19.7289 10.0876 19.8822 9.93429 19.8822 9.75905V9.45238C19.8822 9.43048 19.8822 9.38667 19.9041 9.36476C19.9917 9.0581 20.0793 8.99238 20.386 8.90476H20.5832C20.8898 8.99238 20.9774 9.0581 21.0651 9.36476C21.087 9.38667 21.087 9.43048 21.087 9.45238V9.75905C21.087 9.93429 21.2403 10.0876 21.4374 10.0876H21.9193C22.1165 10.0876 22.2698 9.93429 22.2698 9.75905V9.45238C22.2698 9.43048 22.2917 9.38667 22.2917 9.36476C22.3793 9.0581 22.467 8.99238 22.7736 8.90476H23.1241C23.3213 8.90476 23.4746 8.75143 23.4746 8.55429V8.05048C23.4746 7.85333 23.3213 7.7 23.1241 7.7H22.6203C22.4232 7.7 22.2698 7.85333 22.2698 8.05048V8.35714C22.2698 8.37905 22.2698 8.42286 22.2698 8.44476ZM30.8637 1.65429V2.28952C30.8637 2.31143 30.8418 2.35524 30.8418 2.37714C30.7542 2.6619 30.6665 2.74952 30.4037 2.83714C30.3599 2.83714 30.338 2.83714 30.2942 2.83714H30.0094C29.8122 2.83714 29.6589 2.99048 29.6589 3.18762V4.0419V4.67714C29.6589 4.69905 29.6589 4.74286 29.637 4.76476C29.5713 5.04952 29.4837 5.13714 29.1989 5.22476C29.177 5.22476 29.1332 5.22476 29.1113 5.22476H28.8046C28.6294 5.22476 28.4542 5.37809 28.4542 5.57524V6.42952V7.06476C28.4542 7.10857 28.4542 7.13048 28.4542 7.17429C28.3665 7.43714 28.2789 7.52476 28.0161 7.61238C27.9722 7.61238 27.9503 7.61238 27.9065 7.61238H27.6218C27.4246 7.61238 27.2713 7.76571 27.2713 7.96286V8.26952C27.2713 8.29143 27.2713 8.33524 27.2494 8.35714C27.1618 8.6419 27.0961 8.72952 26.8113 8.79524C26.7894 8.81714 26.7456 8.81714 26.7237 8.81714H26.6361C26.5922 8.81714 26.5703 8.81714 26.5265 8.79524C26.2418 8.72952 26.1761 8.6419 26.0884 8.35714C26.0884 8.33524 26.0665 8.29143 26.0665 8.26952V7.61238V6.42952V5.79429C26.0665 5.75048 26.0884 5.72857 26.0884 5.68476C26.1761 5.4 26.2418 5.33429 26.5265 5.24667C26.5703 5.24667 26.5922 5.22476 26.6361 5.22476H26.9208C27.118 5.22476 27.2713 5.07143 27.2713 4.87429V4.0419V2.83714V1.65429V0.799999C27.2713 0.602857 27.118 0.449523 26.9208 0.449523H26.417C26.2199 0.449523 26.0665 0.602857 26.0665 0.799999V1.08476C26.0665 1.12857 26.0665 1.15048 26.0665 1.19429C25.9789 1.47905 25.8913 1.56667 25.5627 1.65429H25.2342C25.037 1.65429 24.8837 1.80762 24.8837 2.00476V2.48667C24.8837 2.68381 25.037 2.83714 25.2342 2.83714H25.7161C25.9132 2.83714 26.0665 2.99048 26.0665 3.18762V4.0419V4.67714C26.0665 4.69905 26.0665 4.74286 26.0665 4.76476C25.9789 5.07143 25.8913 5.13714 25.5627 5.22476H25.2342C25.037 5.22476 24.8837 5.37809 24.8837 5.57524V6.42952V7.61238V8.46667C24.8837 8.66381 25.037 8.81714 25.2342 8.81714H25.5189C25.5627 8.81714 25.5846 8.81714 25.6065 8.83905C25.8913 8.90476 25.9789 8.99238 26.0665 9.27714C26.0665 9.29905 26.0665 9.34286 26.0665 9.36476V9.67143C26.0665 9.84667 26.2199 10 26.417 10H26.9208C27.118 10 27.2713 9.84667 27.2713 9.67143V9.36476C27.2713 9.34286 27.2713 9.29905 27.2932 9.27714C27.3589 8.99238 27.4465 8.90476 27.7313 8.83905C27.7532 8.81714 27.797 8.81714 27.8189 8.81714H28.1256C28.3008 8.81714 28.4542 8.66381 28.4542 8.46667V8.1819C28.4542 8.1381 28.4761 8.11619 28.4761 8.07238C28.5637 7.78762 28.6513 7.7219 28.9142 7.63429C28.958 7.63429 28.9799 7.61238 29.0237 7.61238H29.3084C29.5056 7.61238 29.6589 7.45905 29.6589 7.28381V6.42952V5.79429C29.6589 5.75048 29.6589 5.72857 29.6808 5.68476C29.7465 5.4 29.8342 5.33429 30.1189 5.24667C30.1408 5.24667 30.1846 5.22476 30.2065 5.22476H30.5132C30.6884 5.22476 30.8637 5.07143 30.8637 4.87429V4.0419V3.40667C30.8637 3.36286 30.8637 3.34095 30.8637 3.29714C30.9513 3.01238 31.0389 2.94667 31.3018 2.85905C31.3456 2.83714 31.3675 2.83714 31.4113 2.83714H31.6961C31.8932 2.83714 32.0465 2.68381 32.0465 2.48667V1.65429V0.799999C32.0465 0.602857 31.8932 0.449523 31.6961 0.449523H31.1922C31.017 0.449523 30.8637 0.602857 30.8637 0.799999V1.65429ZM40.2964 4.12952V4.76476C40.2964 4.78667 40.2964 4.83048 40.2745 4.85238C40.1869 5.13714 40.1212 5.22476 39.8364 5.31238C39.7926 5.31238 39.7707 5.31238 39.7269 5.31238H39.0917H37.9088H36.704H36.0688C36.025 5.31238 36.0031 5.31238 35.9593 5.31238C35.6964 5.22476 35.6088 5.13714 35.5212 4.85238C35.5212 4.83048 35.5212 4.78667 35.5212 4.76476V4.12952V2.92476V2.28952C35.5212 2.24571 35.5212 2.22381 35.5212 2.18C35.6088 1.89524 35.6964 1.82952 36.025 1.7419H36.704H37.9088H39.0917H39.7926C40.0993 1.82952 40.1869 1.89524 40.2745 2.18C40.2964 2.22381 40.2964 2.24571 40.2964 2.28952V2.92476V4.12952ZM40.2964 1.17238V0.887619C40.2964 0.690476 40.1431 0.537142 39.9459 0.537142H39.0917H37.9088H36.704H35.8497C35.6745 0.537142 35.5212 0.690476 35.5212 0.887619V1.17238C35.5212 1.21619 35.4993 1.23809 35.4993 1.2819C35.4117 1.56667 35.3459 1.63238 35.0612 1.72C35.0174 1.72 34.9955 1.7419 34.9517 1.7419H34.6669C34.4697 1.7419 34.3164 1.89524 34.3164 2.07048V2.92476V4.12952V4.76476C34.3164 4.78667 34.3164 4.83048 34.2945 4.85238C34.2288 5.13714 34.1412 5.22476 33.8564 5.31238C33.8345 5.31238 33.7907 5.31238 33.7688 5.31238H33.4621C33.2869 5.31238 33.1336 5.46571 33.1336 5.66286V6.51714V7.7V8.55429C33.1336 8.75143 33.2869 8.90476 33.4621 8.90476H33.7688C33.7907 8.90476 33.8345 8.90476 33.8564 8.92667C34.1412 8.99238 34.2288 9.08 34.2945 9.36476C34.3164 9.38667 34.3164 9.43048 34.3164 9.45238V9.75905C34.3164 9.93429 34.4697 10.0876 34.6669 10.0876H35.5212H36.704H37.9088H38.7412C38.9383 10.0876 39.0917 9.93429 39.0917 9.75905V9.45238C39.0917 9.43048 39.0917 9.38667 39.1136 9.36476C39.2012 9.08 39.2669 8.99238 39.5517 8.92667C39.5955 8.90476 39.6174 8.90476 39.6612 8.90476H39.9459C40.1431 8.90476 40.2964 8.75143 40.2964 8.55429V8.05048C40.2964 7.85333 40.1431 7.7 39.9459 7.7H39.4421C39.245 7.7 39.0917 7.85333 39.0917 8.05048V8.35714C39.0917 8.37905 39.0917 8.42286 39.0917 8.44476C39.004 8.72952 38.9164 8.79524 38.6317 8.88286C38.6097 8.90476 38.5659 8.90476 38.544 8.90476H37.9088H36.704H35.5212H34.864C34.8421 8.90476 34.7983 8.90476 34.7764 8.88286C34.4917 8.79524 34.404 8.72952 34.3383 8.44476C34.3164 8.42286 34.3164 8.37905 34.3164 8.35714V7.7V6.51714V5.8819C34.3164 5.83809 34.3164 5.81619 34.3383 5.77238C34.4259 5.48762 34.5136 5.4 34.8202 5.31238H35.0174C35.0174 5.31238 35.0174 5.31238 34.9955 5.31238C35.324 5.4 35.4117 5.48762 35.4993 5.77238C35.4993 5.81619 35.5212 5.83809 35.5212 5.8819V6.16667C35.5212 6.36381 35.6745 6.51714 35.8497 6.51714H36.704H37.9088H39.0917H39.9459C40.1431 6.51714 40.2964 6.36381 40.2964 6.16667V5.8819C40.2964 5.83809 40.2964 5.81619 40.2964 5.77238C40.384 5.48762 40.4717 5.4219 40.7564 5.33429C40.7783 5.31238 40.8221 5.31238 40.844 5.31238H41.1288C41.3259 5.31238 41.4793 5.15905 41.4793 4.9619V4.12952V2.92476V2.07048C41.4793 1.89524 41.3259 1.7419 41.1288 1.7419H40.844C40.8221 1.7419 40.7783 1.72 40.7564 1.72C40.4717 1.63238 40.384 1.56667 40.2964 1.2819C40.2964 1.23809 40.2964 1.21619 40.2964 1.17238Z" fill="#FF7A00"/>
</svg>
